# xmcd
#
# Track frame offsets: 
#        150
#        35176
#        72062
#        108153
#        142429
#        173105
#        203931
#        231307
#        261908
#
# Disc length: 3889 seconds
#
# Revision: 1
# Processed by: cddbd v1.5.2PL0 Copyright (c) Steve Scherf et al.
# Submitted via: ExactAudioCopy v1.0b3
#
DISCID=8b0f2f09
DTITLE=Eric Alexander - Gentle Ballads II
DYEAR=2006
DGENRE=Jazz
TTITLE0=Mona Lisa
TTITLE1=I Got It Bad(And That Ain't Good)
TTITLE2=Funny
TTITLE3=I'm A Fool To Want You
TTITLE4=Li'l Darlin
TTITLE5=Look Of Love
TTITLE6=My Ship
TTITLE7=Who Can I Turn To
TTITLE8=Time After Time
EXTD=YEAR: 2006
EXTT0=
EXTT1=
EXTT2=
EXTT3=
EXTT4=
EXTT5=
EXTT6=
EXTT7=
EXTT8=
PLAYORDER=
